<?xml version="1.0" encoding="utf-8"?>
<!-- Generator: Adobe Illustrator 26.2.0, SVG Export Plug-In . SVG Version: 6.00 Build 0)  -->
<svg version="1.1" id="Calque_1" xmlns="http://www.w3.org/2000/svg" xmlns:xlink="http://www.w3.org/1999/xlink" x="0px" y="0px"
	 viewBox="0 0 428.3 64.8" style="enable-background:new 0 0 428.3 64.8;" xml:space="preserve">
<style type="text/css">
	.st0{fill:#091C3E;}
	.st1{fill:#FFFFFF;}
	.st2{fill:#CDFB0A;}
</style>
<g>
	<rect x="1.6" y="1.6" class="st0" width="425.2" height="61.7"/>
	<g>
		<path class="st1" d="M333,18.9h18.8v4.6H338v6.5h13.4v4.5H338v6.7h13.7v4.6H333V18.9z M403.8,46.3c5.8,0,9-2.8,9-6.6
			c0-2.7-1.9-4.7-6-5.6l-4.3-0.9c-2.5-0.5-3.3-0.9-3.3-1.8c0-1.2,1.2-1.9,3.4-1.9c2.4,0,4.1,0.6,4.6,2.8h5c-0.3-4.1-3.3-6.9-9.3-6.9
			c-5.2,0-8.9,2.2-8.9,6.3c0,2.9,2,4.8,6.4,5.7l4.8,1.1c1.9,0.4,2.4,0.9,2.4,1.7c0,1.2-1.4,2-3.7,2c-2.9,0-4.5-0.6-5.2-2.8h-5
			C394.5,43.6,397.6,46.3,403.8,46.3z M392.3,45.8h-5.4c-3.4,0-5.3-2.1-5.3-4.8V30.5h-3.8V26h3.8v-5.6h5V26h5.6v4.5h-5.6v9.3
			c0,1.1,0.7,1.6,1.9,1.6h3.8V45.8z M370.7,26v1.8c-1.8-1.5-4-2.3-6.3-2.3c-5.8-0.1-10.5,4.4-10.6,10.2s4.4,10.5,10.2,10.6
			c0.1,0,0.3,0,0.4,0c2.3,0,4.6-0.8,6.3-2.3v1.8h5V26L370.7,26z M364.8,42c-3.3,0-6.1-2.6-6.1-6c0-3.3,2.6-6.1,6-6.1s6.1,2.6,6.1,6
			c0,0,0,0,0,0.1C370.8,39.2,368.1,41.9,364.8,42C364.8,41.9,364.8,41.9,364.8,42L364.8,42z"/>
		<path class="st1" d="M311,36c0-5.8-4.2-10.2-9.8-10.2c-5.6,0-10,4.6-10,10.1c0,0,0,0,0,0.1c0,5.8,4.5,10.2,10.4,10.2
			c3.3,0.1,6.5-1.5,8.4-4.2l-2.8-2c-1.3,1.8-3.4,2.9-5.6,2.8c-3.2,0-6-2.4-6.5-5.6H311L311,36z M295.2,34.2c0.7-3,3.1-5,6-5
			c2.9,0,5.3,2,5.9,5H295.2z M260.7,35.5c0,4.3-2.9,7.1-6.6,7.1c-3.8,0-6.5-2.8-6.5-7.1V18.9h-4.1v16.8c0,6.3,4.4,10.5,10.1,10.5
			c2.7,0,5.2-1.1,7.1-3v2.5h3.9V18.9h-4V35.5z M279.5,25.8c-0.1,0-0.3,0-0.4,0h0c-2.6,0-5.1,1-6.9,2.9v-9.8h-3.9v26.9h3.8v-2.5
			c1.8,1.9,4.4,2.9,7,2.9c5.6,0.1,10.3-4.4,10.4-10S285.1,26,279.5,25.8z M285.5,36.1c0,3.7-3,6.7-6.7,6.7c0,0,0,0,0,0v0
			c-3.7,0-6.8-3-6.8-6.7c0-3.7,3-6.8,6.7-6.8C282.4,29.3,285.5,32.3,285.5,36.1C285.5,36,285.5,36.1,285.5,36.1z M322.1,26.1
			c-1.9-0.1-3.6,0.9-4.6,2.5v-2.4h-3.8v19.6h3.9V34.7c0-3,1.8-5,4.3-5h1.6v-3.6H322.1z M96.4,45.8h6.7V18.9h-6.7V45.8z M78.7,18.9
			H72v26.9h19.6v-5.6H78.7V18.9z M129,39.6c-1.2,0.6-2.6,0.8-4.2,0.8c-4.8,0-8.6-3.3-8.6-8.1c0-4.7,3.5-7.7,8.5-7.7
			c3.5,0,5.8,0.6,8.1,1.7l1.7-5.8c-2-1.1-5.5-1.9-9.9-1.9c-9.1,0-15.3,6.1-15.3,13.8c0,7.7,6.2,13.8,15.2,13.8
			c6.1,0,9.4-2.1,10.8-3.3V31.9l-6.2,0.8V39.6z M208.6,24.4l1.3,5.7l5.9-3.1v18.9h6.5V18.9h-3.9L208.6,24.4z M160.2,34.5
			c0,3-1.8,5.9-6.1,5.9c-4.3,0-6-2.9-6-5.9V18.9h-6.7V34c0,8,5.1,12.2,12.7,12.2c7.7,0,12.8-4.2,12.8-12.2V18.9h-6.7V34.5z
			 M181,34.8h10.5v-5.3H181v-4.9h12.9v-5.7h-19.7v26.9h20v-5.6H181V34.8z"/>
		<g>
			<path class="st1" d="M40.9,32.4c0,3.2-2.6,5.8-5.8,5.8c-3.2,0-5.8-2.6-5.8-5.8s2.6-5.8,5.8-5.8C38.3,26.6,40.9,29.2,40.9,32.4z"
				/>
			<g>
				<path class="st2" d="M47,18l-4.4,7.1c2,2.9,3.7,5.6,5.2,8.6c-1.9,3.8-4.1,7.5-6.7,10.9c-3.6,0.3-7.1,0.3-10.7,0.1l-4.5,7.1
					c6.8,0.6,13,0.8,19.4-0.2c4.6-5.6,8.1-11.3,11.2-17.9C54,28,50.7,22.8,47,18z"/>
				<path class="st2" d="M22.6,31c1.9-3.8,4.1-7.5,6.7-10.9c3.6-0.3,7.1-0.3,10.7-0.1l4.5-7.1c-6.4-0.7-12.6-0.6-19.4,0.2
					c-4.3,5.2-8.4,11.7-11.2,18c2.5,5.7,5.6,10.6,9.4,15.7l4.4-7.1C25.8,36.7,24.1,34,22.6,31z"/>
			</g>
		</g>
	</g>
</g>
</svg>
